<?xml version="1.0" standalone="no"?><!DOCTYPE svg PUBLIC "-//W3C//DTD SVG 1.1//EN" "http://www.w3.org/Graphics/SVG/1.1/DTD/svg11.dtd"><svg t="1590977054887" class="icon" viewBox="0 0 1024 1024" version="1.1" xmlns="http://www.w3.org/2000/svg" p-id="2152" xmlns:xlink="http://www.w3.org/1999/xlink" width="200" height="200"><defs><style type="text/css"></style></defs><path d="M704 64H149.3c-23.5 0-42.7 19.2-42.7 42.7v810.7c0 23.5 19.2 42.7 42.7 42.7h725.3c23.5 0 42.7-19.2 42.7-42.7v-640L704 64z m0 64l149.3 149.3h-128c-11.8 0-21.3-9.6-21.3-21.3V128z m170.7 768c0 11.7-9.6 21.3-21.3 21.3H170.7c-11.7 0-21.3-9.6-21.3-21.3V128c0-11.7 9.6-21.3 21.3-21.3h490.7v170.7c0 23.6 19.1 42.7 42.7 42.7h170.7V896z" fill="#297bcc" p-id="2153"></path><path d="M266.7 234.7H224c-5.9 0-10.7 4.8-10.7 10.7V288c0 5.9 4.8 10.7 10.7 10.7h42.7c5.9 0 10.7-4.8 10.7-10.7v-42.7c-0.1-5.9-4.8-10.6-10.7-10.6zM266.7 362.7H224c-5.9 0-10.7 4.8-10.7 10.7V416c0 5.9 4.8 10.7 10.7 10.7h42.7c5.9 0 10.7-4.8 10.7-10.7v-42.7c-0.1-5.9-4.8-10.6-10.7-10.6zM266.7 490.7H224c-5.9 0-10.7 4.8-10.7 10.7V544c0 5.9 4.8 10.7 10.7 10.7h42.7c5.9 0 10.7-4.8 10.7-10.7v-42.7c-0.1-5.9-4.8-10.6-10.7-10.6zM266.7 618.7H224c-5.9 0-10.7 4.8-10.7 10.7V672c0 5.9 4.8 10.7 10.7 10.7h42.7c5.9 0 10.7-4.8 10.7-10.7v-42.7c-0.1-5.9-4.8-10.6-10.7-10.6zM266.7 746.7H224c-5.9 0-10.7 4.8-10.7 10.7V800c0 5.9 4.8 10.7 10.7 10.7h42.7c5.9 0 10.7-4.8 10.7-10.7v-42.7c-0.1-5.9-4.8-10.6-10.7-10.6zM757.3 810.7H800c5.9 0 10.7-4.8 10.7-10.7v-42.7c0-5.9-4.8-10.7-10.7-10.7h-42.7c-5.9 0-10.7 4.8-10.7 10.7V800c0.1 5.9 4.8 10.7 10.7 10.7zM757.3 682.7H800c5.9 0 10.7-4.8 10.7-10.7v-42.7c0-5.9-4.8-10.7-10.7-10.7h-42.7c-5.9 0-10.7 4.8-10.7 10.7V672c0.1 5.9 4.8 10.7 10.7 10.7zM757.3 554.7H800c5.9 0 10.7-4.8 10.7-10.7v-42.7c0-5.9-4.8-10.7-10.7-10.7h-42.7c-5.9 0-10.7 4.8-10.7 10.7V544c0.1 5.9 4.8 10.7 10.7 10.7zM607.2 491L441 387.5c-15.7-9.8-35.7 2-35.7 21v207c0 19 20 30.7 35.7 21L607.2 533c15.3-9.5 15.3-32.5 0-42z" fill="#297bcc" p-id="2154"></path></svg>